<svg xmlns="http://www.w3.org/2000/svg"  viewBox="0 0 100 100" width="400px" height="400px"><path d="M 49.998047 11 C 29.024269 11 12.027344 28.434466 12.027344 48.753906 C 12.027344 63.215502 15.313079 75.216625 20.822266 84.144531 C 21.727234 85.610742 23.691445 85.949783 25.056641 85.015625 C 25.665133 85.884141 26.298492 86.752476 26.980469 87.625 A 1.0001 1.0001 0 0 0 27.832031 88.007812 C 31.66182 87.768687 35.463257 88.811831 39.296875 90.880859 A 1.0001 1.0001 0 0 0 40.240234 90.882812 L 44.298828 88.724609 C 47.017872 87.27898 48.058919 83.875311 46.613281 81.15625 L 35.392578 60.048828 C 34.308356 58.009545 32.121663 56.913905 29.949219 57.103516 C 29.225071 57.166716 28.502031 57.372965 27.822266 57.734375 L 23.763672 59.892578 A 1.0001 1.0001 0 0 0 23.234375 60.71875 C 23.058317 63.783433 22.280517 66.5887 20.886719 69.169922 C 19.601485 64.460816 18.892578 59.252986 18.892578 53.646484 C 18.892578 37.043921 32.820825 22.728516 49.998047 22.728516 C 67.175268 22.728516 81.105469 37.043921 81.105469 53.646484 C 81.105469 59.268199 80.398118 64.479075 79.119141 69.185547 C 77.720314 66.600023 76.942015 63.788508 76.765625 60.71875 A 1.0001 1.0001 0 0 0 76.236328 59.894531 L 72.177734 57.736328 C 71.497969 57.374919 70.774929 57.168672 70.050781 57.105469 C 67.878337 56.915858 65.691644 58.011498 64.607422 60.050781 L 53.386719 81.15625 C 51.941081 83.875311 52.982128 87.27898 55.701172 88.724609 L 59.759766 90.882812 A 1.0001 1.0001 0 0 0 60.703125 90.880859 C 64.536758 88.812792 68.339103 87.769631 72.167969 88.007812 A 1.0001 1.0001 0 0 0 73.019531 87.625 C 73.700675 86.753542 74.331567 85.885032 74.939453 85.017578 C 76.305432 85.970897 78.285698 85.636425 79.195312 84.162109 C 84.692643 75.248874 87.972656 63.256733 87.972656 48.753906 C 87.971628 28.434495 70.971824 11 49.998047 11 z M 49.998047 13 C 62.585794 13 73.659298 19.650567 80.087891 29.40625 C 78.807282 29.178985 77.653416 28.53681 76.832031 27.558594 C 74.250031 24.480594 71.203391 21.881031 67.775391 19.832031 C 67.539391 19.689031 67.231844 19.768859 67.089844 20.005859 C 66.948844 20.243859 67.026672 20.549406 67.263672 20.691406 C 70.594672 22.683406 73.556406 25.209172 76.066406 28.201172 C 77.223655 29.581005 78.928481 30.397017 80.78125 30.486328 C 84.07517 35.889151 85.972323 42.165453 85.972656 48.753906 C 85.972656 49.160823 85.960331 49.558262 85.955078 49.960938 C 85.723171 52.092104 85.337826 53.812157 84.814453 55.113281 C 84.299266 56.394058 83.681532 57.262564 82.96875 57.814453 C 83.053503 56.448409 83.105469 55.061698 83.105469 53.646484 C 83.105469 35.927048 68.284825 20.728516 49.998047 20.728516 C 31.711268 20.728516 16.892578 35.927048 16.892578 53.646484 C 16.892578 55.144702 16.949171 56.612501 17.044922 58.056641 C 16.185337 57.534858 15.456797 56.59364 14.861328 55.113281 C 14.567589 54.383035 14.319576 53.51001 14.113281 52.521484 C 14.061556 51.283967 14.027344 50.033058 14.027344 48.753906 C 14.027344 42.165455 15.925421 35.889155 19.21875 30.486328 C 21.070661 30.396535 22.774798 29.58153 23.931641 28.203125 C 30.488641 20.388125 39.989047 15.90625 49.998047 15.90625 C 51.111047 15.90625 52.238656 15.962266 53.347656 16.072266 C 53.626656 16.109266 53.866531 15.899 53.894531 15.625 C 53.922531 15.349 53.720312 15.105125 53.445312 15.078125 C 52.303313 14.964125 51.144047 14.90625 49.998047 14.90625 C 39.693047 14.90625 29.912063 19.518547 23.164062 27.560547 C 22.34347 28.538763 21.192683 29.178985 19.912109 29.40625 C 26.339591 19.650566 37.410299 13 49.998047 13 z M 55.457031 15.337891 C 55.184031 15.295891 54.928766 15.480906 54.884766 15.753906 C 54.841766 16.025906 55.028781 16.282172 55.300781 16.326172 C 56.915781 16.585172 58.526844 16.966938 60.089844 17.460938 C 60.139844 17.475937 60.190234 17.484375 60.240234 17.484375 C 60.452234 17.484375 60.649797 17.348766 60.716797 17.134766 C 60.799797 16.871766 60.653625 16.590812 60.390625 16.507812 C 58.780625 15.997813 57.120031 15.604891 55.457031 15.337891 z M 62.113281 17.144531 C 61.918797 17.151422 61.736359 17.271344 61.662109 17.464844 C 61.564109 17.723844 61.693172 18.012328 61.951172 18.111328 C 62.258172 18.229328 62.564188 18.350562 62.867188 18.476562 C 62.930187 18.501563 62.994594 18.515625 63.058594 18.515625 C 63.253594 18.515625 63.440484 18.398031 63.521484 18.207031 C 63.627484 17.952031 63.506953 17.658734 63.251953 17.552734 C 62.939953 17.422734 62.625594 17.297734 62.308594 17.177734 C 62.244594 17.153484 62.178109 17.142234 62.113281 17.144531 z M 85.707031 55.564453 C 84.847366 66.700431 81.88832 75.988665 77.494141 83.113281 C 77.174262 83.632311 76.519223 83.733148 76.052734 83.369141 C 78.386715 79.76348 80.068403 76.189975 80.96875 72.644531 A 1.0001 1.0001 0 0 0 80.798828 71.796875 C 80.710859 71.680207 80.635849 71.559069 80.550781 71.441406 C 81.730999 67.617456 82.524169 63.459853 82.882812 59.027344 C 84.045955 58.404903 85.014067 57.248532 85.707031 55.564453 z M 14.355469 56.402344 C 15.08015 57.788095 16.024935 58.730757 17.132812 59.207031 C 17.500311 63.560454 18.296477 67.648623 19.464844 71.419922 C 19.374752 71.544857 19.294531 71.673058 19.201172 71.796875 A 1.0001 1.0001 0 0 0 19.03125 72.644531 C 19.931911 76.188275 21.611145 79.761049 23.943359 83.365234 C 23.478276 83.711011 22.839806 83.606325 22.523438 83.09375 C 18.231731 76.138829 15.299421 67.140302 14.355469 56.402344 z M 30.65625 59.080078 C 31.867805 59.147283 33.011147 59.830029 33.626953 60.988281 L 44.847656 82.09375 C 45.786018 83.858689 45.126284 86.020614 43.361328 86.958984 L 42.583984 87.373047 L 41.652344 85.621094 C 41.522344 85.377094 41.219563 85.283062 40.976562 85.414062 C 40.732562 85.544063 40.639531 85.846844 40.769531 86.089844 L 41.701172 87.841797 L 40.033203 88.728516 L 25.433594 61.269531 L 27.101562 60.382812 L 31.380859 68.429688 C 31.470859 68.598688 31.643266 68.695312 31.822266 68.695312 C 31.901266 68.695312 31.982641 68.677719 32.056641 68.636719 C 32.300641 68.506719 32.393672 68.203937 32.263672 67.960938 L 27.984375 59.914062 L 28.761719 59.5 C 29.202953 59.26541 29.669289 59.132265 30.134766 59.089844 C 30.30932 59.073936 30.483171 59.070477 30.65625 59.080078 z M 69.34375 59.080078 C 69.516829 59.070424 69.69068 59.073936 69.865234 59.089844 C 70.330711 59.132264 70.797047 59.267363 71.238281 59.501953 L 72.015625 59.916016 L 67.736328 67.960938 C 67.607328 68.203938 67.699359 68.506719 67.943359 68.636719 C 68.017359 68.676719 68.098734 68.695312 68.177734 68.695312 C 68.356734 68.695312 68.529141 68.599687 68.619141 68.429688 L 72.898438 60.384766 L 74.564453 61.271484 L 59.966797 88.728516 L 58.298828 87.841797 L 59.230469 86.089844 C 59.359469 85.846844 59.267437 85.544062 59.023438 85.414062 C 58.779438 85.284063 58.476656 85.378094 58.347656 85.621094 L 57.416016 87.373047 L 56.638672 86.958984 C 54.873716 86.020614 54.213982 83.858689 55.152344 82.09375 L 66.373047 60.990234 C 66.988853 59.831983 68.132195 59.147657 69.34375 59.080078 z M 24.980469 62.544922 L 38.746094 88.435547 C 35.337809 86.816751 31.855748 85.914321 28.310547 86.023438 C 24.719268 81.357877 22.258217 76.823327 21.091797 72.462891 C 23.216826 69.480635 24.50626 66.155093 24.980469 62.544922 z M 75.019531 62.544922 C 75.493748 66.154684 76.78314 69.480593 78.908203 72.462891 C 77.742686 76.823068 75.280822 81.357816 71.689453 86.023438 C 68.144948 85.915106 64.662396 86.819301 61.253906 88.4375 L 75.019531 62.544922 z M 32.716797 69.462891 C 32.652187 69.468734 32.588094 69.488484 32.527344 69.521484 C 32.283344 69.651484 32.190312 69.954266 32.320312 70.197266 L 34.667969 74.611328 C 34.757969 74.780328 34.930375 74.876953 35.109375 74.876953 C 35.188375 74.876953 35.26975 74.858359 35.34375 74.818359 C 35.58775 74.688359 35.680781 74.385578 35.550781 74.142578 L 33.203125 69.728516 C 33.105625 69.545516 32.910625 69.445359 32.716797 69.462891 z M 67.283203 69.464844 C 67.089375 69.447688 66.894375 69.546266 66.796875 69.728516 L 64.449219 74.142578 C 64.320219 74.385578 64.41225 74.688359 64.65625 74.818359 C 64.73025 74.858359 64.811625 74.876953 64.890625 74.876953 C 65.069625 74.876953 65.242031 74.780328 65.332031 74.611328 L 67.679688 70.197266 C 67.808688 69.954266 67.716656 69.651484 67.472656 69.521484 C 67.411906 69.488734 67.347813 69.470562 67.283203 69.464844 z M 36.001953 75.644531 C 35.937344 75.650406 35.87325 75.668422 35.8125 75.701172 C 35.5685 75.831172 35.475469 76.133953 35.605469 76.376953 L 36.076172 77.259766 C 36.166172 77.429766 36.338578 77.525391 36.517578 77.525391 C 36.596578 77.525391 36.677953 77.507797 36.751953 77.466797 C 36.995953 77.336797 37.088984 77.034016 36.958984 76.791016 L 36.488281 75.908203 C 36.390781 75.724453 36.195781 75.626906 36.001953 75.644531 z M 63.996094 75.644531 C 63.802031 75.627047 63.608469 75.724453 63.511719 75.908203 L 63.041016 76.791016 C 62.912016 77.034016 63.004047 77.336797 63.248047 77.466797 C 63.322047 77.506797 63.403422 77.525391 63.482422 77.525391 C 63.661422 77.525391 63.833828 77.430766 63.923828 77.259766 L 64.394531 76.376953 C 64.523531 76.133953 64.4305 75.831172 64.1875 75.701172 C 64.12675 75.668672 64.060781 75.650359 63.996094 75.644531 z"/></svg>