<?xml version="1.0" encoding="UTF-8"?><svg id="a" xmlns="http://www.w3.org/2000/svg" viewBox="0 0 170.08 170.08"><defs><style>.b{fill:#ed6c00;}.c{fill:#30363a;}</style></defs><g><path class="b" d="M124.02,69.38c-11.67,3.54-23.06,1.05-29.32-3.26-17.47-12.05,5.2-53.86-16.03-52.52-30.71,1.94-59.27,44.5-33.61,84.2h0c.67,1.05,1.84,1.74,3.18,1.74,2.09,0,3.78-1.69,3.78-3.78,0-.56-.13-1.1-.35-1.58h0c-.03-.07-.07-.14-.1-.21v-.02c-23.85-47.17,19.58-59.65,22.16-57.07,2.24,2.24-17.6,40.95,44.22,41.43h0c-.74,1.29-1.42,2.71-1.99,4.25-2.79,7.52-2,14.76,1.76,16.15,3.66,1.36,8.78-3.31,11.63-10.48h0v-.03c.09-.19,.16-.39,.24-.58,.24-.65,.45-1.29,.64-1.93,5.21-16.49-4.22-16.91-6.21-16.31Z"/><path class="b" d="M36.94,104.82c-6.91,4.09-10.85,10.2-8.81,13.65,2.04,3.45,9.3,2.94,16.21-1.14,6.91-4.09,10.85-10.2,8.81-13.65s-9.3-2.94-16.21,1.14Z"/></g><g><g><path class="c" d="M33.56,149.87c0,4.39-3.42,6.64-8.23,6.64H15.18c-.79,0-1-.38-1-1v-20.77c0-.62,.21-1,1-1h9.68c5.63,0,8.05,3.01,8.05,6.26,0,3.49-2.21,4.6-2.52,4.74,.28,.1,3.18,1.42,3.18,5.15Zm-5.5-.52c0-1.62-1.21-2.11-2.87-2.11h-.8c-.79,0-1-.38-1-1v-2.63c0-.62,.21-1,1-1h.45c2.01,0,2.87-.73,2.87-2.07,0-1.56-1.07-1.94-2.87-1.94h-5.25v13h5.81c1.69,0,2.66-.69,2.66-2.25Z"/><path class="c" d="M55.03,152.67v2.83c0,.62-.21,1-1,1h-15.48c-.79,0-1-.38-1-1v-20.74c0-.62,.21-1,1-1h14.9c.79,0,1,.38,1,1v2.87c0,.62-.21,1-1,1h-10.44v3.77h9.26c.79,0,1,.38,1,1v2.7c0,.62-.21,1-1,1h-9.26v4.56h11.03c.8,0,1,.38,1,1Z"/><path class="c" d="M78.53,156.51h-3.63c-.76,0-1.04-.21-1.31-1.04l-.97-2.73h-8.47l-.97,2.73c-.28,.83-.55,1.04-1.31,1.04h-3.63c-.76,0-.76-.55-.59-.97l7.67-20.7c.28-.73,.66-1.07,1.42-1.07h3.32c.76,0,1.11,.35,1.42,1.07l7.64,20.7c.17,.41,.17,.97-.59,.97Zm-7.53-8.61l-2.59-7.64-2.59,7.64h5.18Z"/><path class="c" d="M97.48,134.77v2.87c0,.62-.21,1-1,1h-5.29v16.87c0,.79-.38,1-1,1h-3.42c-.62,0-1-.21-1-1v-16.87h-5.32c-.79,0-1-.38-1-1v-2.87c0-.62,.21-1,1-1h16.04c.8,0,1,.38,1,1Z"/><path class="c" d="M112.17,152.78v2.73c0,.62-.21,1-1,1h-9.78c-.79,0-1-.38-1-1v-2.73c0-.62,.21-1,1-1h2.18v-13.2h-2.11c-.79,0-1-.38-1-1v-2.8c0-.62,.21-1,1-1h9.61c.79,0,1,.38,1,1v2.8c0,.62-.21,1-1,1h-2.07v13.2h2.18c.79,0,1,.38,1,1Z"/><path class="c" d="M138.37,134.74v20.77c0,.79-.38,1-1,1h-3.32c-.62,0-1-.21-1-1v-11.72l-3.46,6.05c-.17,.28-.48,.73-1,.73h-1.73c-.52,0-.8-.45-.97-.73l-3.49-6.05v11.72c0,.79-.38,1-1,1h-3.42c-.62,0-1-.21-1-1v-20.77c0-.62,.21-1,1-1h3.42c1.18,0,1.31,.76,1.59,1.18l4.74,8.5,4.77-8.5c.24-.41,.41-1.18,1.56-1.18h3.32c.8,0,1,.38,1,1Z"/></g><g><path class="c" d="M149.69,151.08v.72c0,.16-.05,.25-.25,.25h-1.32v4.21c0,.2-.1,.25-.25,.25h-.85c-.16,0-.25-.05-.25-.25v-4.21h-1.33c-.2,0-.25-.1-.25-.25v-.72c0-.16,.05-.25,.25-.25h4.01c.2,0,.25,.09,.25,.25Z"/><path class="c" d="M155.91,151.07v5.19c0,.2-.1,.25-.25,.25h-.83c-.16,0-.25-.05-.25-.25v-2.93l-.86,1.51c-.04,.07-.12,.18-.25,.18h-.43c-.13,0-.2-.11-.24-.18l-.87-1.51v2.93c0,.2-.1,.25-.25,.25h-.85c-.16,0-.25-.05-.25-.25v-5.19c0-.16,.05-.25,.25-.25h.85c.29,0,.33,.19,.4,.29l1.18,2.12,1.19-2.12c.06-.1,.1-.29,.39-.29h.83c.2,0,.25,.09,.25,.25Z"/></g></g></svg>