<svg xmlns="http://www.w3.org/2000/svg"  viewBox="0 0 50 50" width="50px" height="50px"><path d="M 28.78125 2.03125 C 28.527344 2.050781 28.277344 2.085938 28.03125 2.15625 L 10.40625 7.15625 C 8.425781 7.71875 7.25 9.800781 7.8125 11.78125 L 16.0625 40.78125 C 16.078125 40.878906 16.109375 40.972656 16.15625 41.0625 L 17.34375 45.28125 C 17.90625 47.261719 19.988281 48.40625 21.96875 47.84375 L 39.59375 42.84375 C 41.574219 42.28125 42.75 40.199219 42.1875 38.21875 L 41.03125 34.15625 C 41.046875 33.921875 40.980469 33.691406 40.84375 33.5 L 32.65625 4.71875 C 32.234375 3.234375 30.980469 2.214844 29.53125 2.03125 C 29.289063 2 29.035156 2.011719 28.78125 2.03125 Z M 28.9375 4 C 29.753906 3.9375 30.515625 4.460938 30.75 5.28125 L 38.71875 33.40625 L 17.71875 39.34375 L 9.75 11.21875 C 9.484375 10.277344 10.027344 9.328125 10.96875 9.0625 L 28.59375 4.0625 C 28.710938 4.027344 28.820313 4.007813 28.9375 4 Z M 38.1875 10.65625 C 37.898438 10.703125 37.644531 10.878906 37.492188 11.132813 C 37.34375 11.382813 37.308594 11.691406 37.40625 11.96875 L 42.40625 29.59375 C 42.5625 30.128906 43.121094 30.4375 43.65625 30.28125 C 44.191406 30.125 44.5 29.566406 44.34375 29.03125 L 39.34375 11.40625 C 39.230469 10.964844 38.832031 10.65625 38.375 10.65625 C 38.34375 10.65625 38.3125 10.65625 38.28125 10.65625 C 38.25 10.65625 38.21875 10.65625 38.1875 10.65625 Z M 43.84375 13.8125 C 43.554688 13.859375 43.300781 14.035156 43.148438 14.289063 C 43 14.539063 42.964844 14.847656 43.0625 15.125 L 45.5625 23.9375 C 45.71875 24.472656 46.277344 24.78125 46.8125 24.625 C 47.347656 24.46875 47.65625 23.910156 47.5 23.375 L 45 14.5625 C 44.886719 14.121094 44.488281 13.8125 44.03125 13.8125 C 44 13.8125 43.96875 13.8125 43.9375 13.8125 C 43.90625 13.8125 43.875 13.8125 43.84375 13.8125 Z M 6.53125 19.65625 C 6.5 19.664063 6.46875 19.675781 6.4375 19.6875 C 6.15625 19.738281 5.90625 19.90625 5.757813 20.152344 C 5.609375 20.398438 5.570313 20.695313 5.65625 20.96875 L 10.65625 38.59375 C 10.8125 39.128906 11.371094 39.4375 11.90625 39.28125 C 12.441406 39.125 12.75 38.566406 12.59375 38.03125 L 7.59375 20.40625 C 7.480469 19.964844 7.082031 19.65625 6.625 19.65625 C 6.59375 19.65625 6.5625 19.65625 6.53125 19.65625 Z M 3.375 25.3125 C 3.34375 25.320313 3.3125 25.332031 3.28125 25.34375 C 3 25.394531 2.75 25.5625 2.601563 25.808594 C 2.453125 26.054688 2.414063 26.351563 2.5 26.625 L 5 35.4375 C 5.15625 35.972656 5.714844 36.28125 6.25 36.125 C 6.785156 35.96875 7.09375 35.410156 6.9375 34.875 L 4.4375 26.0625 C 4.324219 25.621094 3.925781 25.3125 3.46875 25.3125 C 3.4375 25.3125 3.40625 25.3125 3.375 25.3125 Z M 39.28125 35.34375 L 40.25 38.78125 C 40.515625 39.722656 39.972656 40.671875 39.03125 40.9375 L 21.40625 45.9375 C 20.464844 46.203125 19.515625 45.660156 19.25 44.71875 L 18.28125 41.28125 Z M 29.40625 39.5 C 29.316406 39.507813 29.214844 39.503906 29.125 39.53125 C 28.394531 39.738281 27.980469 40.519531 28.1875 41.25 C 28.394531 41.980469 29.144531 42.394531 29.875 42.1875 C 30.605469 41.980469 31.019531 41.230469 30.8125 40.5 C 30.632813 39.859375 30.042969 39.453125 29.40625 39.5 Z"/></svg>